<svg width="287" height="283" viewBox="0 0 287 283" fill="none" xmlns="http://www.w3.org/2000/svg">
<g filter="url(#filter0_d_2786_2162)">
<rect width="67.2" height="96" transform="translate(24 32)" fill="#0A0F2C"/>
<rect x="24.6857" y="32.6857" width="65.8286" height="94.6286" fill="#FF8C00" stroke="black" stroke-width="1.37143"/>
<path d="M75.5659 39.543C81.5493 39.543 86.3997 44.3936 86.3999 50.377V75.0635C86.3997 100.134 66.0758 120.457 41.0054 120.457C35.022 120.457 30.1714 115.606 30.1714 109.623V84.9375C30.1714 59.8669 50.4954 39.543 75.5659 39.543Z" fill="#F6F8FF" stroke="black" stroke-width="1.37143"/>
<path d="M32.1626 44.0768C31.8992 44.0768 31.7274 43.9525 31.6469 43.7038L30.857 41.4217L28.6188 41.9154L27.9056 43.7147C27.8618 43.8171 27.7959 43.9013 27.7082 43.9671C27.6277 44.0329 27.5253 44.0658 27.401 44.0658C27.2547 44.0658 27.1267 44.0146 27.017 43.9122C26.9072 43.8098 26.8524 43.6891 26.8524 43.5502C26.8524 43.4551 26.878 43.3454 26.9292 43.221L27.368 42.1239C27.3242 42.1093 27.2912 42.0946 27.2693 42.08C27.0791 41.9849 26.984 41.824 26.984 41.5973C26.984 41.4656 27.0206 41.3522 27.0938 41.2571C27.1742 41.1621 27.2766 41.0999 27.401 41.0706L27.8069 40.9829L29.4307 36.8576C29.4746 36.7479 29.544 36.6638 29.6391 36.6053C29.7342 36.5467 29.8366 36.5175 29.9463 36.5175C30.0634 36.5175 30.1658 36.5467 30.2535 36.6053C30.3413 36.6638 30.4071 36.7552 30.451 36.8795L32.6343 43.2101C32.6416 43.2247 32.6563 43.2686 32.6782 43.3417C32.7002 43.4075 32.7111 43.477 32.7111 43.5502C32.7111 43.6891 32.6599 43.8135 32.5575 43.9232C32.4551 44.0256 32.3235 44.0768 32.1626 44.0768ZM30.4949 40.4014L29.9024 38.635L29.0796 40.7086L30.4949 40.4014ZM34.1567 44.0658C34.0177 44.0658 33.8934 44.011 33.7837 43.9013C33.674 43.7915 33.6191 43.6672 33.6191 43.5282L33.6301 37.1319C33.6301 36.9856 33.6776 36.8613 33.7727 36.7589C33.8751 36.6491 34.0031 36.5943 34.1567 36.5943C34.2445 36.5943 34.3286 36.6162 34.409 36.6601C34.4895 36.6967 34.5553 36.7515 34.6065 36.8247L38.0406 41.7947V37.1319C38.0406 36.9856 38.0918 36.8576 38.1942 36.7479C38.3039 36.6382 38.4356 36.5833 38.5892 36.5833C38.7354 36.5833 38.8598 36.6382 38.9622 36.7479C39.0719 36.8576 39.1268 36.9856 39.1268 37.1319V43.5282C39.1268 43.6818 39.0756 43.8098 38.9732 43.9122C38.8708 44.0146 38.7428 44.0658 38.5892 44.0658C38.5087 44.0658 38.4246 44.0439 38.3368 44C38.2564 43.9561 38.1905 43.8976 38.1393 43.8245L34.7162 38.8763L34.7053 43.5282C34.7053 43.6818 34.6504 43.8098 34.5407 43.9122C34.4383 44.0146 34.3103 44.0658 34.1567 44.0658ZM42.5097 44.1317C42.2537 44.1317 41.9941 44.1061 41.7308 44.0549C41.4674 44.011 41.2882 43.9744 41.1932 43.9451C41.0761 43.9086 40.9774 43.8391 40.8969 43.7367C40.8165 43.6343 40.7762 43.5246 40.7762 43.4075V37.1867C40.7762 37.0331 40.8274 36.9051 40.9298 36.8027C41.0396 36.7003 41.1712 36.6491 41.3248 36.6491C42.0636 36.6491 42.8096 36.7589 43.563 36.9783C44.3164 37.1977 44.9673 37.6073 45.5159 38.2071C46.0718 38.8069 46.3497 39.637 46.3497 40.6976C46.3497 41.4656 46.1815 42.1093 45.845 42.6286C45.5086 43.1406 45.0514 43.5209 44.4736 43.7696C43.8958 44.011 43.2412 44.1317 42.5097 44.1317ZM42.5097 43.0345C43.3655 43.0345 44.0348 42.837 44.5175 42.4421C45.0076 42.0471 45.2526 41.4656 45.2526 40.6976C45.2526 39.7467 44.9417 39.0409 44.32 38.5801C43.7056 38.1193 42.8901 37.8487 41.8734 37.7682V42.9687C42.1221 43.0126 42.3342 43.0345 42.5097 43.0345Z" fill="black"/>
<path d="M43.8862 69.0283V90.9712H60.3434C63.2532 90.9712 66.0438 89.8153 68.1013 87.7577C70.1589 85.7002 71.3148 82.9096 71.3148 79.9997C71.3148 77.0899 70.1589 74.2993 68.1013 72.2418C66.0438 70.1842 63.2532 69.0283 60.3434 69.0283H43.8862ZM46.6291 71.7712H60.3434C62.5257 71.7712 64.6187 72.6381 66.1619 74.1813C67.705 75.7244 68.5719 77.8174 68.5719 79.9997C68.5719 82.1821 67.705 84.2751 66.1619 85.8182C64.6187 87.3614 62.5257 88.2283 60.3434 88.2283H46.6291V71.7712Z" fill="black"/>
<path d="M83.0371 115.923C83.3005 115.923 83.4723 116.048 83.5528 116.296L84.3427 118.578L86.5809 118.085L87.2941 116.285C87.3379 116.183 87.4038 116.099 87.4915 116.033C87.572 115.967 87.6744 115.934 87.7987 115.934C87.945 115.934 88.073 115.985 88.1827 116.088C88.2925 116.19 88.3473 116.311 88.3473 116.45C88.3473 116.545 88.3217 116.655 88.2705 116.779L87.8317 117.876C87.8755 117.891 87.9085 117.905 87.9304 117.92C88.1206 118.015 88.2157 118.176 88.2157 118.403C88.2157 118.534 88.1791 118.648 88.1059 118.743C88.0255 118.838 87.9231 118.9 87.7987 118.929L87.3928 119.017L85.769 123.142C85.7251 123.252 85.6557 123.336 85.5606 123.395C85.4655 123.453 85.3631 123.483 85.2534 123.483C85.1363 123.483 85.0339 123.453 84.9462 123.395C84.8584 123.336 84.7926 123.245 84.7487 123.12L82.5654 116.79C82.5581 116.775 82.5434 116.731 82.5215 116.658C82.4995 116.592 82.4886 116.523 82.4886 116.45C82.4886 116.311 82.5398 116.187 82.6422 116.077C82.7446 115.974 82.8762 115.923 83.0371 115.923ZM84.7048 119.599L85.2973 121.365L86.1201 119.291L84.7048 119.599ZM81.043 115.934C81.182 115.934 81.3063 115.989 81.416 116.099C81.5257 116.208 81.5806 116.333 81.5806 116.472L81.5696 122.868C81.5696 123.014 81.5221 123.139 81.427 123.241C81.3246 123.351 81.1966 123.406 81.043 123.406C80.9552 123.406 80.8711 123.384 80.7907 123.34C80.7102 123.303 80.6444 123.248 80.5932 123.175L77.1591 118.205V122.868C77.1591 123.014 77.1079 123.142 77.0055 123.252C76.8958 123.362 76.7641 123.417 76.6105 123.417C76.4643 123.417 76.3399 123.362 76.2375 123.252C76.1278 123.142 76.0729 123.014 76.0729 122.868V116.472C76.0729 116.318 76.1241 116.19 76.2265 116.088C76.3289 115.985 76.4569 115.934 76.6105 115.934C76.691 115.934 76.7751 115.956 76.8629 116C76.9433 116.044 77.0092 116.102 77.0604 116.176L80.4835 121.124L80.4944 116.472C80.4944 116.318 80.5493 116.19 80.659 116.088C80.7614 115.985 80.8894 115.934 81.043 115.934ZM72.69 115.868C72.946 115.868 73.2056 115.894 73.4689 115.945C73.7323 115.989 73.9115 116.026 74.0065 116.055C74.1236 116.091 74.2223 116.161 74.3028 116.263C74.3832 116.366 74.4235 116.475 74.4235 116.592V122.813C74.4235 122.967 74.3723 123.095 74.2699 123.197C74.1601 123.3 74.0285 123.351 73.8749 123.351C73.1361 123.351 72.3901 123.241 71.6367 123.022C70.8833 122.802 70.2324 122.393 69.6838 121.793C69.1279 121.193 68.85 120.363 68.85 119.302C68.85 118.534 69.0182 117.891 69.3547 117.371C69.6911 116.859 70.1483 116.479 70.7261 116.23C71.3039 115.989 71.9585 115.868 72.69 115.868ZM72.69 116.965C71.8342 116.965 71.1649 117.163 70.6822 117.558C70.1921 117.953 69.9471 118.534 69.9471 119.302C69.9471 120.253 70.258 120.959 70.8797 121.42C71.4941 121.881 72.3096 122.151 73.3263 122.232V117.031C73.0776 116.987 72.8655 116.965 72.69 116.965Z" fill="black"/>
</g>
<g filter="url(#filter1_d_2786_2162)">
<rect width="67.2" height="96" transform="translate(39 163)" fill="#0A0F2C"/>
<rect x="39.6857" y="163.686" width="65.8286" height="94.6286" fill="#3CB371" stroke="black" stroke-width="1.37143"/>
<path d="M90.5659 170.543C96.5493 170.543 101.4 175.394 101.4 181.377V206.063C101.4 231.134 81.0758 251.457 56.0054 251.457C50.022 251.457 45.1714 246.606 45.1714 240.623V215.938C45.1714 190.867 65.4954 170.543 90.5659 170.543Z" fill="#F6F8FF" stroke="black" stroke-width="1.37143"/>
<path d="M45.0231 175.066C44.4819 175.066 43.9955 174.916 43.5639 174.616C43.1324 174.309 42.7923 173.892 42.5436 173.365C42.3022 172.839 42.1815 172.25 42.1815 171.599C42.1815 170.86 42.3315 170.184 42.6314 169.569C42.9312 168.955 43.3299 168.472 43.8272 168.121C44.3319 167.763 44.8732 167.583 45.451 167.583C45.9923 167.583 46.4787 167.733 46.9102 168.033C47.3491 168.333 47.6892 168.746 47.9306 169.273C48.1792 169.8 48.3036 170.392 48.3036 171.05C48.3036 171.796 48.1536 172.477 47.8538 173.091C47.5539 173.698 47.1516 174.181 46.6469 174.539C46.1495 174.89 45.6083 175.066 45.0231 175.066ZM45.0231 174.024C45.4181 174.024 45.7802 173.899 46.1093 173.651C46.4458 173.402 46.7127 173.054 46.9102 172.608C47.1077 172.162 47.2064 171.657 47.2064 171.094C47.2064 170.582 47.1187 170.14 46.9431 169.767C46.7749 169.394 46.5482 169.112 46.2629 168.922C45.985 168.724 45.6924 168.626 45.3852 168.626C45.0048 168.626 44.6538 168.754 44.3319 169.01C44.0101 169.266 43.7541 169.62 43.5639 170.074C43.3738 170.52 43.2787 171.028 43.2787 171.599C43.2787 172.111 43.3591 172.55 43.52 172.915C43.681 173.281 43.8931 173.559 44.1564 173.749C44.427 173.932 44.7159 174.024 45.0231 174.024ZM50.0996 175.066C49.946 175.066 49.818 175.015 49.7156 174.912C49.6132 174.81 49.562 174.682 49.562 174.528V168.242C49.562 168.044 49.5802 167.901 49.6168 167.814C49.6607 167.726 49.7412 167.667 49.8582 167.638C49.9825 167.602 50.1764 167.583 50.4397 167.583H50.8895C52.1183 167.583 53.0655 167.788 53.7311 168.198C54.3967 168.607 54.7295 169.181 54.7295 169.92C54.7295 170.856 54.1882 171.566 53.1057 172.049C53.881 172.663 54.4881 173.405 54.927 174.276C54.9636 174.349 54.9818 174.433 54.9818 174.528C54.9818 174.675 54.9306 174.803 54.8282 174.912C54.7332 175.015 54.6052 175.066 54.4442 175.066C54.2394 175.066 54.0785 174.971 53.9615 174.781C52.996 173.245 52.1329 172.477 51.3722 172.477C51.1455 172.477 50.9005 172.499 50.6372 172.542V174.528C50.6372 174.682 50.5823 174.81 50.4726 174.912C50.3702 175.015 50.2458 175.066 50.0996 175.066ZM50.6372 171.533C51.4271 171.482 52.1256 171.321 52.7327 171.05C53.3398 170.78 53.6433 170.403 53.6433 169.92C53.6433 169.503 53.3983 169.185 52.9082 168.966C52.4255 168.746 51.7416 168.637 50.8566 168.637H50.6372V171.533Z" fill="black"/>
<path d="M58.8857 200.028C63 208.257 63 213.743 58.8857 221.971H67.1143C73.9715 221.971 82.2 216.485 86.3143 211C82.2 205.514 73.9715 200.028 67.1143 200.028H58.8857ZM63 202.771H67.1143C71.9143 202.771 78.4972 206.885 82.6115 211C78.4972 215.114 71.9143 219.228 67.1143 219.228H63C64.92 213.605 64.92 208.394 63 202.771Z" fill="black"/>
<path d="M100.177 246.934C100.718 246.934 101.204 247.084 101.636 247.384C102.067 247.691 102.407 248.108 102.656 248.635C102.897 249.161 103.018 249.75 103.018 250.401C103.018 251.14 102.868 251.816 102.568 252.431C102.268 253.045 101.87 253.528 101.372 253.879C100.868 254.237 100.327 254.417 99.7487 254.417C99.2074 254.417 98.721 254.267 98.2895 253.967C97.8506 253.667 97.5105 253.254 97.2691 252.727C97.0205 252.2 96.8961 251.608 96.8961 250.95C96.8961 250.204 97.0461 249.523 97.3459 248.909C97.6458 248.302 98.0481 247.819 98.5528 247.461C99.0502 247.11 99.5914 246.934 100.177 246.934ZM100.177 247.976C99.7816 247.976 99.4195 248.101 99.0904 248.349C98.7539 248.598 98.487 248.946 98.2895 249.392C98.092 249.838 97.9933 250.343 97.9933 250.906C97.9933 251.418 98.081 251.86 98.2566 252.233C98.4248 252.606 98.6515 252.888 98.9368 253.078C99.2147 253.276 99.5073 253.374 99.8145 253.374C100.195 253.374 100.546 253.246 100.868 252.99C101.19 252.734 101.446 252.38 101.636 251.926C101.826 251.48 101.921 250.972 101.921 250.401C101.921 249.889 101.841 249.45 101.68 249.085C101.519 248.719 101.307 248.441 101.043 248.251C100.773 248.068 100.484 247.976 100.177 247.976ZM95.1001 246.934C95.2537 246.934 95.3817 246.985 95.4841 247.088C95.5865 247.19 95.6377 247.318 95.6377 247.472V253.758C95.6377 253.956 95.6195 254.099 95.5829 254.186C95.539 254.274 95.4585 254.333 95.3415 254.362C95.2172 254.398 95.0233 254.417 94.76 254.417H94.3102C93.0814 254.417 92.1342 254.212 91.4686 253.802C90.803 253.393 90.4702 252.819 90.4702 252.08C90.4702 251.144 91.0115 250.434 92.094 249.951C91.3187 249.337 90.7116 248.595 90.2727 247.724C90.2361 247.651 90.2179 247.567 90.2179 247.472C90.2179 247.325 90.2691 247.197 90.3715 247.088C90.4665 246.985 90.5945 246.934 90.7555 246.934C90.9603 246.934 91.1212 247.029 91.2382 247.219C92.2037 248.755 93.0668 249.523 93.8275 249.523C94.0542 249.523 94.2992 249.501 94.5625 249.458V247.472C94.5625 247.318 94.6174 247.19 94.7271 247.088C94.8295 246.985 94.9539 246.934 95.1001 246.934ZM94.5625 250.467C93.7726 250.518 93.0741 250.679 92.467 250.95C91.8599 251.22 91.5564 251.597 91.5564 252.08C91.5564 252.497 91.8014 252.815 92.2915 253.034C92.7742 253.254 93.4581 253.363 94.3431 253.363H94.5625V250.467Z" fill="black"/>
</g>
<g filter="url(#filter2_d_2786_2162)">
<rect width="67.2" height="96" transform="translate(106 87)" fill="#0A0F2C"/>
<rect x="106.686" y="87.6857" width="65.8286" height="94.6286" fill="#B22222" stroke="black" stroke-width="1.37143"/>
<path d="M157.566 94.543C163.549 94.543 168.4 99.3936 168.4 105.377V130.063C168.4 155.134 148.076 175.457 123.005 175.457C117.022 175.457 112.171 170.606 112.171 164.623V139.938C112.171 114.867 132.495 94.543 157.566 94.543Z" fill="#F6F8FF" stroke="black" stroke-width="1.37143"/>
<path d="M110.103 99.0658C109.964 99.0658 109.84 99.011 109.73 98.9013C109.62 98.7915 109.566 98.6672 109.566 98.5282L109.577 92.1319C109.577 91.9856 109.624 91.8613 109.719 91.7589C109.822 91.6491 109.95 91.5943 110.103 91.5943C110.191 91.5943 110.275 91.6162 110.355 91.6601C110.436 91.6967 110.502 91.7515 110.553 91.8247L113.987 96.7947V92.1319C113.987 91.9856 114.038 91.8576 114.141 91.7479C114.25 91.6382 114.382 91.5833 114.536 91.5833C114.682 91.5833 114.806 91.6382 114.909 91.7479C115.018 91.8576 115.073 91.9856 115.073 92.1319V98.5282C115.073 98.6818 115.022 98.8098 114.92 98.9122C114.817 99.0146 114.689 99.0658 114.536 99.0658C114.455 99.0658 114.371 99.0439 114.283 99C114.203 98.9561 114.137 98.8976 114.086 98.8245L110.663 93.8763L110.652 98.5282C110.652 98.6818 110.597 98.8098 110.487 98.9122C110.385 99.0146 110.257 99.0658 110.103 99.0658ZM121.32 99.0768C121.056 99.0768 120.885 98.9525 120.804 98.7038L120.014 96.4217L117.776 96.9154L117.063 98.7147C117.019 98.8171 116.953 98.9013 116.865 98.9671C116.785 99.0329 116.682 99.0658 116.558 99.0658C116.412 99.0658 116.284 99.0146 116.174 98.9122C116.064 98.8098 116.01 98.6891 116.01 98.5502C116.01 98.4551 116.035 98.3454 116.086 98.221L116.525 97.1239C116.481 97.1093 116.448 97.0946 116.426 97.08C116.236 96.9849 116.141 96.824 116.141 96.5973C116.141 96.4656 116.178 96.3522 116.251 96.2571C116.331 96.1621 116.434 96.0999 116.558 96.0706L116.964 95.9829L118.588 91.8576C118.632 91.7479 118.701 91.6638 118.796 91.6053C118.891 91.5467 118.994 91.5175 119.103 91.5175C119.221 91.5175 119.323 91.5467 119.411 91.6053C119.498 91.6638 119.564 91.7552 119.608 91.8795L121.791 98.2101C121.799 98.2247 121.813 98.2686 121.835 98.3417C121.857 98.4075 121.868 98.477 121.868 98.5502C121.868 98.6891 121.817 98.8135 121.715 98.9232C121.612 99.0256 121.481 99.0768 121.32 99.0768ZM119.652 95.4014L119.06 93.635L118.237 95.7086L119.652 95.4014ZM123.314 99.0658C123.175 99.0658 123.051 99.011 122.941 98.9013C122.831 98.7915 122.776 98.6672 122.776 98.5282L122.787 92.1319C122.787 91.9856 122.835 91.8613 122.93 91.7589C123.032 91.6491 123.16 91.5943 123.314 91.5943C123.402 91.5943 123.486 91.6162 123.566 91.6601C123.647 91.6967 123.712 91.7515 123.764 91.8247L127.198 96.7947V92.1319C127.198 91.9856 127.249 91.8576 127.351 91.7479C127.461 91.6382 127.593 91.5833 127.746 91.5833C127.893 91.5833 128.017 91.6382 128.119 91.7479C128.229 91.8576 128.284 91.9856 128.284 92.1319V98.5282C128.284 98.6818 128.233 98.8098 128.13 98.9122C128.028 99.0146 127.9 99.0658 127.746 99.0658C127.666 99.0658 127.582 99.0439 127.494 99C127.414 98.9561 127.348 98.8976 127.296 98.8245L123.873 93.8763L123.862 98.5282C123.862 98.6818 123.808 98.8098 123.698 98.9122C123.595 99.0146 123.467 99.0658 123.314 99.0658ZM131.667 99.1317C131.411 99.1317 131.151 99.1061 130.888 99.0549C130.625 99.011 130.445 98.9744 130.35 98.9451C130.233 98.9086 130.135 98.8391 130.054 98.7367C129.974 98.6343 129.933 98.5246 129.933 98.4075V92.1867C129.933 92.0331 129.985 91.9051 130.087 91.8027C130.197 91.7003 130.328 91.6491 130.482 91.6491C131.221 91.6491 131.967 91.7589 132.72 91.9783C133.474 92.1977 134.124 92.6073 134.673 93.2071C135.229 93.8069 135.507 94.637 135.507 95.6976C135.507 96.4656 135.339 97.1093 135.002 97.6286C134.666 98.1406 134.209 98.5209 133.631 98.7696C133.053 99.011 132.398 99.1317 131.667 99.1317ZM131.667 98.0345C132.523 98.0345 133.192 97.837 133.675 97.4421C134.165 97.0471 134.41 96.4656 134.41 95.6976C134.41 94.7467 134.099 94.0409 133.477 93.5801C132.863 93.1193 132.047 92.8487 131.031 92.7682V97.9687C131.279 98.0126 131.491 98.0345 131.667 98.0345Z" fill="black"/>
<path d="M125.886 124.028V145.971H136.857C141.561 145.971 145.771 143.009 147.28 138.565C147.829 138.84 148.514 139.114 149.2 139.114C150.291 139.114 151.338 138.681 152.109 137.909C152.881 137.137 153.314 136.091 153.314 135C153.314 133.909 152.881 132.862 152.109 132.091C151.338 131.319 150.291 130.885 149.2 130.885C148.514 130.885 147.87 131.091 147.28 131.434C145.771 126.991 141.561 124.028 136.857 124.028H125.886ZM128.629 126.771H136.857C139.04 126.771 141.132 127.638 142.676 129.181C144.219 130.724 145.086 132.817 145.086 135C145.086 137.182 144.219 139.275 142.676 140.818C141.132 142.361 139.04 143.228 136.857 143.228H128.629V126.771ZM149.2 133.628C149.886 133.628 150.571 134.314 150.571 135C150.571 135.685 149.886 136.371 149.2 136.371C148.836 136.371 148.487 136.227 148.23 135.969C147.973 135.712 147.829 135.363 147.829 135C147.829 134.314 148.514 133.628 149.2 133.628Z" fill="black"/>
<path d="M169.097 170.934C169.236 170.934 169.36 170.989 169.47 171.099C169.579 171.208 169.634 171.333 169.634 171.472L169.623 177.868C169.623 178.014 169.576 178.139 169.481 178.241C169.378 178.351 169.25 178.406 169.097 178.406C169.009 178.406 168.925 178.384 168.844 178.34C168.764 178.303 168.698 178.248 168.647 178.175L165.213 173.205V177.868C165.213 178.014 165.161 178.142 165.059 178.252C164.949 178.362 164.818 178.417 164.664 178.417C164.518 178.417 164.393 178.362 164.291 178.252C164.181 178.142 164.127 178.014 164.127 177.868V171.472C164.127 171.318 164.178 171.19 164.28 171.088C164.383 170.985 164.511 170.934 164.664 170.934C164.745 170.934 164.829 170.956 164.916 171C164.997 171.044 165.063 171.102 165.114 171.176L168.537 176.124L168.548 171.472C168.548 171.318 168.603 171.19 168.713 171.088C168.815 170.985 168.943 170.934 169.097 170.934ZM157.88 170.923C158.143 170.923 158.315 171.048 158.396 171.296L159.186 173.578L161.424 173.085L162.137 171.285C162.181 171.183 162.247 171.099 162.334 171.033C162.415 170.967 162.517 170.934 162.642 170.934C162.788 170.934 162.916 170.985 163.026 171.088C163.135 171.19 163.19 171.311 163.19 171.45C163.19 171.545 163.165 171.655 163.113 171.779L162.675 172.876C162.718 172.891 162.751 172.905 162.773 172.92C162.963 173.015 163.059 173.176 163.059 173.403C163.059 173.534 163.022 173.648 162.949 173.743C162.868 173.838 162.766 173.9 162.642 173.929L162.236 174.017L160.612 178.142C160.568 178.252 160.499 178.336 160.403 178.395C160.308 178.453 160.206 178.483 160.096 178.483C159.979 178.483 159.877 178.453 159.789 178.395C159.701 178.336 159.635 178.245 159.592 178.12L157.408 171.79C157.401 171.775 157.386 171.731 157.364 171.658C157.342 171.592 157.331 171.523 157.331 171.45C157.331 171.311 157.383 171.187 157.485 171.077C157.587 170.974 157.719 170.923 157.88 170.923ZM159.548 174.599L160.14 176.365L160.963 174.291L159.548 174.599ZM155.886 170.934C156.025 170.934 156.149 170.989 156.259 171.099C156.369 171.208 156.423 171.333 156.423 171.472L156.412 177.868C156.412 178.014 156.365 178.139 156.27 178.241C156.167 178.351 156.039 178.406 155.886 178.406C155.798 178.406 155.714 178.384 155.634 178.34C155.553 178.303 155.487 178.248 155.436 178.175L152.002 173.205V177.868C152.002 178.014 151.951 178.142 151.848 178.252C151.739 178.362 151.607 178.417 151.453 178.417C151.307 178.417 151.183 178.362 151.08 178.252C150.971 178.142 150.916 178.014 150.916 177.868V171.472C150.916 171.318 150.967 171.19 151.069 171.088C151.172 170.985 151.3 170.934 151.453 170.934C151.534 170.934 151.618 170.956 151.706 171C151.786 171.044 151.852 171.102 151.903 171.176L155.326 176.124L155.337 171.472C155.337 171.318 155.392 171.19 155.502 171.088C155.604 170.985 155.732 170.934 155.886 170.934ZM147.533 170.868C147.789 170.868 148.048 170.894 148.312 170.945C148.575 170.989 148.754 171.026 148.849 171.055C148.966 171.091 149.065 171.161 149.146 171.263C149.226 171.366 149.266 171.475 149.266 171.592V177.813C149.266 177.967 149.215 178.095 149.113 178.197C149.003 178.3 148.871 178.351 148.718 178.351C147.979 178.351 147.233 178.241 146.48 178.022C145.726 177.802 145.075 177.393 144.527 176.793C143.971 176.193 143.693 175.363 143.693 174.302C143.693 173.534 143.861 172.891 144.198 172.371C144.534 171.859 144.991 171.479 145.569 171.23C146.147 170.989 146.801 170.868 147.533 170.868ZM147.533 171.965C146.677 171.965 146.008 172.163 145.525 172.558C145.035 172.953 144.79 173.534 144.79 174.302C144.79 175.253 145.101 175.959 145.723 176.42C146.337 176.881 147.152 177.151 148.169 177.232V172.031C147.92 171.987 147.708 171.965 147.533 171.965Z" fill="black"/>
</g>
<g filter="url(#filter3_d_2786_2162)">
<rect width="67.2" height="96" transform="translate(182 149)" fill="#0A0F2C"/>
<rect x="182.686" y="149.686" width="65.8286" height="94.6286" fill="#8B4513" stroke="black" stroke-width="1.37143"/>
<path d="M233.566 156.543C239.549 156.543 244.4 161.394 244.4 167.377V192.063C244.4 217.134 224.076 237.457 199.005 237.457C193.022 237.457 188.171 232.606 188.171 226.623V201.938C188.171 176.867 208.495 156.543 233.566 156.543Z" fill="#F6F8FF" stroke="black" stroke-width="1.37143"/>
<path d="M186.103 161.066C185.964 161.066 185.84 161.011 185.73 160.901C185.62 160.792 185.566 160.667 185.566 160.528L185.577 154.132C185.577 153.986 185.624 153.861 185.719 153.759C185.822 153.649 185.95 153.594 186.103 153.594C186.191 153.594 186.275 153.616 186.355 153.66C186.436 153.697 186.502 153.752 186.553 153.825L189.987 158.795V154.132C189.987 153.986 190.038 153.858 190.141 153.748C190.25 153.638 190.382 153.583 190.536 153.583C190.682 153.583 190.806 153.638 190.909 153.748C191.018 153.858 191.073 153.986 191.073 154.132V160.528C191.073 160.682 191.022 160.81 190.92 160.912C190.817 161.015 190.689 161.066 190.536 161.066C190.455 161.066 190.371 161.044 190.283 161C190.203 160.956 190.137 160.898 190.086 160.824L186.663 155.876L186.652 160.528C186.652 160.682 186.597 160.81 186.487 160.912C186.385 161.015 186.257 161.066 186.103 161.066ZM195.18 161.066C194.639 161.066 194.153 160.916 193.721 160.616C193.29 160.309 192.949 159.892 192.701 159.365C192.459 158.839 192.339 158.25 192.339 157.599C192.339 156.86 192.489 156.184 192.789 155.569C193.088 154.955 193.487 154.472 193.984 154.121C194.489 153.763 195.03 153.583 195.608 153.583C196.149 153.583 196.636 153.733 197.067 154.033C197.506 154.333 197.846 154.746 198.088 155.273C198.336 155.8 198.461 156.392 198.461 157.05C198.461 157.796 198.311 158.477 198.011 159.091C197.711 159.698 197.309 160.181 196.804 160.539C196.307 160.89 195.765 161.066 195.18 161.066ZM195.18 160.024C195.575 160.024 195.937 159.899 196.266 159.651C196.603 159.402 196.87 159.054 197.067 158.608C197.265 158.162 197.364 157.657 197.364 157.094C197.364 156.582 197.276 156.14 197.1 155.767C196.932 155.394 196.705 155.112 196.42 154.922C196.142 154.724 195.85 154.626 195.542 154.626C195.162 154.626 194.811 154.754 194.489 155.01C194.167 155.266 193.911 155.62 193.721 156.074C193.531 156.52 193.436 157.028 193.436 157.599C193.436 158.111 193.516 158.55 193.677 158.915C193.838 159.281 194.05 159.559 194.314 159.749C194.584 159.932 194.873 160.024 195.18 160.024ZM200.257 161.066C200.103 161.066 199.975 161.015 199.873 160.912C199.77 160.81 199.719 160.682 199.719 160.528V154.242C199.719 154.044 199.737 153.901 199.774 153.814C199.818 153.726 199.898 153.667 200.015 153.638C200.14 153.602 200.334 153.583 200.597 153.583H201.047C202.275 153.583 203.223 153.788 203.888 154.198C204.554 154.607 204.887 155.181 204.887 155.92C204.887 156.856 204.345 157.566 203.263 158.049C204.038 158.663 204.645 159.405 205.084 160.276C205.121 160.349 205.139 160.433 205.139 160.528C205.139 160.675 205.088 160.803 204.985 160.912C204.89 161.015 204.762 161.066 204.601 161.066C204.397 161.066 204.236 160.971 204.119 160.781C203.153 159.245 202.29 158.477 201.529 158.477C201.303 158.477 201.058 158.499 200.794 158.542V160.528C200.794 160.682 200.739 160.81 200.63 160.912C200.527 161.015 200.403 161.066 200.257 161.066ZM200.794 157.533C201.584 157.482 202.283 157.321 202.89 157.05C203.497 156.78 203.8 156.403 203.8 155.92C203.8 155.503 203.555 155.185 203.065 154.966C202.583 154.746 201.899 154.637 201.014 154.637H200.794V157.533Z" fill="black"/>
<path d="M201.886 186.028C206 194.257 206 199.743 201.886 207.971H206C212.034 207.971 216.971 204.817 221.909 199.331C222.663 200.428 223.883 201.114 225.2 201.114C226.291 201.114 227.338 200.681 228.109 199.909C228.881 199.137 229.314 198.091 229.314 197C229.314 195.909 228.881 194.862 228.109 194.091C227.338 193.319 226.291 192.885 225.2 192.885C223.883 192.885 222.663 193.571 221.909 194.668C216.971 189.183 212.034 186.028 206 186.028H201.886ZM206 188.771C211.211 188.771 215.6 191.651 220.126 197C215.6 202.348 211.211 205.228 206 205.228C208.057 199.743 208.057 194.257 206 188.771ZM225.2 195.628C225.886 195.628 226.571 196.314 226.571 197C226.571 197.685 225.886 198.371 225.2 198.371C224.836 198.371 224.487 198.227 224.23 197.969C223.973 197.712 223.829 197.363 223.829 197C223.829 196.314 224.514 195.628 225.2 195.628Z" fill="black"/>
<path d="M245.097 232.934C245.236 232.934 245.36 232.989 245.47 233.099C245.579 233.208 245.634 233.333 245.634 233.472L245.623 239.868C245.623 240.014 245.576 240.139 245.481 240.241C245.378 240.351 245.25 240.406 245.097 240.406C245.009 240.406 244.925 240.384 244.844 240.34C244.764 240.303 244.698 240.248 244.647 240.175L241.213 235.205V239.868C241.213 240.014 241.161 240.142 241.059 240.252C240.949 240.362 240.818 240.417 240.664 240.417C240.518 240.417 240.393 240.362 240.291 240.252C240.181 240.142 240.127 240.014 240.127 239.868V233.472C240.127 233.318 240.178 233.19 240.28 233.088C240.383 232.985 240.511 232.934 240.664 232.934C240.745 232.934 240.829 232.956 240.916 233C240.997 233.044 241.063 233.102 241.114 233.176L244.537 238.124L244.548 233.472C244.548 233.318 244.603 233.19 244.713 233.088C244.815 232.985 244.943 232.934 245.097 232.934ZM236.019 232.934C236.561 232.934 237.047 233.084 237.479 233.384C237.91 233.691 238.25 234.108 238.499 234.635C238.74 235.161 238.861 235.75 238.861 236.401C238.861 237.14 238.711 237.816 238.411 238.431C238.111 239.045 237.713 239.528 237.215 239.879C236.711 240.237 236.169 240.417 235.592 240.417C235.05 240.417 234.564 240.267 234.132 239.967C233.693 239.667 233.353 239.254 233.112 238.727C232.863 238.2 232.739 237.608 232.739 236.95C232.739 236.204 232.889 235.523 233.189 234.909C233.489 234.302 233.891 233.819 234.396 233.461C234.893 233.11 235.434 232.934 236.019 232.934ZM236.019 233.976C235.624 233.976 235.262 234.101 234.933 234.349C234.597 234.598 234.33 234.946 234.132 235.392C233.935 235.838 233.836 236.343 233.836 236.906C233.836 237.418 233.924 237.86 234.099 238.233C234.268 238.606 234.494 238.888 234.78 239.078C235.058 239.276 235.35 239.374 235.657 239.374C236.038 239.374 236.389 239.246 236.711 238.99C237.032 238.734 237.288 238.38 237.479 237.926C237.669 237.48 237.764 236.972 237.764 236.401C237.764 235.889 237.683 235.45 237.523 235.085C237.362 234.719 237.149 234.441 236.886 234.251C236.616 234.068 236.327 233.976 236.019 233.976ZM230.943 232.934C231.097 232.934 231.225 232.985 231.327 233.088C231.429 233.19 231.481 233.318 231.481 233.472V239.758C231.481 239.956 231.462 240.099 231.426 240.186C231.382 240.274 231.301 240.333 231.184 240.362C231.06 240.398 230.866 240.417 230.603 240.417H230.153C228.924 240.417 227.977 240.212 227.311 239.802C226.646 239.393 226.313 238.819 226.313 238.08C226.313 237.144 226.854 236.434 227.937 235.951C227.162 235.337 226.554 234.595 226.116 233.724C226.079 233.651 226.061 233.567 226.061 233.472C226.061 233.325 226.112 233.197 226.214 233.088C226.309 232.985 226.437 232.934 226.598 232.934C226.803 232.934 226.964 233.029 227.081 233.219C228.047 234.755 228.91 235.523 229.67 235.523C229.897 235.523 230.142 235.501 230.405 235.458V233.472C230.405 233.318 230.46 233.19 230.57 233.088C230.672 232.985 230.797 232.934 230.943 232.934ZM230.405 236.467C229.615 236.518 228.917 236.679 228.31 236.95C227.703 237.22 227.399 237.597 227.399 238.08C227.399 238.497 227.644 238.815 228.134 239.034C228.617 239.254 229.301 239.363 230.186 239.363H230.405V236.467Z" fill="black"/>
</g>
<g filter="url(#filter4_d_2786_2162)">
<rect width="67.2" height="96" transform="translate(195 24)" fill="#0A0F2C"/>
<rect x="195.686" y="24.6857" width="65.8286" height="94.6286" fill="#FFD700" stroke="black" stroke-width="1.37143"/>
<path d="M246.566 31.543C252.549 31.543 257.4 36.3936 257.4 42.377V67.0635C257.4 92.1339 237.076 112.457 212.005 112.457C206.022 112.457 201.171 107.606 201.171 101.623V76.9375C201.171 51.8669 221.495 31.543 246.566 31.543Z" fill="#F6F8FF" stroke="black" stroke-width="1.37143"/>
<path d="M198.818 36.0658C198.657 36.0658 198.525 36.0146 198.423 35.9122C198.321 35.8025 198.269 35.6745 198.269 35.5282C198.269 35.4697 198.28 35.4075 198.302 35.3417C198.324 35.2686 198.353 35.2137 198.39 35.1771L200.837 32.2697L198.609 29.472C198.522 29.355 198.478 29.2416 198.478 29.1319C198.478 28.9856 198.533 28.8613 198.642 28.7589C198.759 28.6491 198.891 28.5943 199.037 28.5943C199.206 28.5943 199.345 28.6601 199.454 28.7918L201.55 31.4139L203.755 28.7918C203.806 28.7259 203.868 28.6784 203.942 28.6491C204.022 28.6126 204.099 28.5943 204.172 28.5943C204.318 28.5943 204.446 28.6491 204.556 28.7589C204.666 28.8686 204.721 28.9929 204.721 29.1319C204.721 29.2562 204.677 29.3733 204.589 29.483L202.241 32.2807L204.556 35.1991C204.622 35.2795 204.655 35.3893 204.655 35.5282C204.655 35.6745 204.603 35.8025 204.501 35.9122C204.399 36.0146 204.274 36.0658 204.128 36.0658C203.953 36.0658 203.81 36 203.7 35.8683L201.517 33.1474L199.224 35.8683C199.114 36 198.979 36.0658 198.818 36.0658ZM208.78 36.0658C208.239 36.0658 207.753 35.9159 207.321 35.616C206.89 35.3088 206.549 34.8919 206.301 34.3653C206.059 33.8386 205.939 33.2498 205.939 32.5989C205.939 31.8601 206.089 31.1835 206.389 30.5691C206.688 29.9547 207.087 29.472 207.584 29.1209C208.089 28.7625 208.63 28.5833 209.208 28.5833C209.749 28.5833 210.236 28.7333 210.667 29.0331C211.106 29.333 211.446 29.7463 211.688 30.2729C211.936 30.7995 212.061 31.392 212.061 32.0503C212.061 32.7963 211.911 33.4766 211.611 34.091C211.311 34.6981 210.909 35.1808 210.404 35.5392C209.907 35.8903 209.365 36.0658 208.78 36.0658ZM208.78 35.0235C209.175 35.0235 209.537 34.8992 209.866 34.6505C210.203 34.4018 210.47 34.0544 210.667 33.6082C210.865 33.1621 210.964 32.6574 210.964 32.0942C210.964 31.5822 210.876 31.1397 210.7 30.7666C210.532 30.3936 210.305 30.112 210.02 29.9218C209.742 29.7243 209.45 29.6256 209.142 29.6256C208.762 29.6256 208.411 29.7536 208.089 30.0096C207.767 30.2656 207.511 30.6203 207.321 31.0738C207.131 31.52 207.036 32.0283 207.036 32.5989C207.036 33.1109 207.116 33.5497 207.277 33.9154C207.438 34.2811 207.65 34.5591 207.914 34.7493C208.184 34.9321 208.473 35.0235 208.78 35.0235ZM213.857 36.0658C213.703 36.0658 213.575 36.0146 213.473 35.9122C213.37 35.8098 213.319 35.6818 213.319 35.5282V29.2416C213.319 29.0441 213.337 28.9015 213.374 28.8137C213.418 28.7259 213.498 28.6674 213.615 28.6382C213.74 28.6016 213.934 28.5833 214.197 28.5833H214.647C215.875 28.5833 216.823 28.7881 217.488 29.1977C218.154 29.6073 218.487 30.1815 218.487 30.9202C218.487 31.8565 217.945 32.5659 216.863 33.0487C217.638 33.6631 218.245 34.4055 218.684 35.2759C218.721 35.349 218.739 35.4331 218.739 35.5282C218.739 35.6745 218.688 35.8025 218.585 35.9122C218.49 36.0146 218.362 36.0658 218.201 36.0658C217.997 36.0658 217.836 35.9707 217.719 35.7806C216.753 34.2446 215.89 33.4766 215.129 33.4766C214.903 33.4766 214.658 33.4985 214.394 33.5424V35.5282C214.394 35.6818 214.339 35.8098 214.23 35.9122C214.127 36.0146 214.003 36.0658 213.857 36.0658ZM214.394 32.533C215.184 32.4818 215.883 32.3209 216.49 32.0503C217.097 31.7797 217.4 31.403 217.4 30.9202C217.4 30.5033 217.155 30.1851 216.665 29.9657C216.183 29.7463 215.499 29.6366 214.614 29.6366H214.394V32.533Z" fill="black"/>
<path d="M214.886 61.0283C219 69.2569 219 74.7426 214.886 82.9712H217.629C221.743 74.7426 221.743 69.2569 217.766 61.0283H214.886ZM220.371 61.0283C224.486 69.2569 224.486 74.7426 220.371 82.9712H224.486C231.343 82.9712 236.829 78.8569 242.314 71.9997C236.829 65.1426 231.343 61.0283 224.486 61.0283H220.371ZM224.486 63.7712C229.697 63.7712 234.086 66.6512 238.611 71.9997C233.949 77.3483 229.697 80.2283 224.486 80.2283C226.543 74.7426 226.543 69.2569 224.486 63.7712Z" fill="black"/>
<path d="M258.382 107.934C258.543 107.934 258.674 107.985 258.777 108.088C258.879 108.197 258.93 108.325 258.93 108.472C258.93 108.53 258.919 108.592 258.897 108.658C258.876 108.731 258.846 108.786 258.81 108.823L256.363 111.73L258.59 114.528C258.678 114.645 258.722 114.758 258.722 114.868C258.722 115.014 258.667 115.139 258.557 115.241C258.44 115.351 258.309 115.406 258.162 115.406C257.994 115.406 257.855 115.34 257.745 115.208L255.65 112.586L253.445 115.208C253.393 115.274 253.331 115.322 253.258 115.351C253.178 115.387 253.101 115.406 253.028 115.406C252.881 115.406 252.753 115.351 252.644 115.241C252.534 115.131 252.479 115.007 252.479 114.868C252.479 114.744 252.523 114.627 252.611 114.517L254.959 111.719L252.644 108.801C252.578 108.72 252.545 108.611 252.545 108.472C252.545 108.325 252.596 108.197 252.699 108.088C252.801 107.985 252.925 107.934 253.072 107.934C253.247 107.934 253.39 108 253.5 108.132L255.683 110.853L257.976 108.132C258.086 108 258.221 107.934 258.382 107.934ZM248.419 107.934C248.961 107.934 249.447 108.084 249.879 108.384C250.31 108.691 250.65 109.108 250.899 109.635C251.14 110.161 251.261 110.75 251.261 111.401C251.261 112.14 251.111 112.816 250.811 113.431C250.511 114.045 250.113 114.528 249.615 114.879C249.111 115.237 248.569 115.417 247.992 115.417C247.45 115.417 246.964 115.267 246.532 114.967C246.093 114.667 245.753 114.254 245.512 113.727C245.263 113.2 245.139 112.608 245.139 111.95C245.139 111.204 245.289 110.523 245.589 109.909C245.889 109.302 246.291 108.819 246.796 108.461C247.293 108.11 247.834 107.934 248.419 107.934ZM248.419 108.976C248.024 108.976 247.662 109.101 247.333 109.349C246.997 109.598 246.73 109.946 246.532 110.392C246.335 110.838 246.236 111.343 246.236 111.906C246.236 112.418 246.324 112.86 246.499 113.233C246.668 113.606 246.894 113.888 247.18 114.078C247.458 114.276 247.75 114.374 248.057 114.374C248.438 114.374 248.789 114.246 249.111 113.99C249.432 113.734 249.688 113.38 249.879 112.926C250.069 112.48 250.164 111.972 250.164 111.401C250.164 110.889 250.083 110.45 249.923 110.085C249.762 109.719 249.549 109.441 249.286 109.251C249.016 109.068 248.727 108.976 248.419 108.976ZM243.343 107.934C243.497 107.934 243.625 107.985 243.727 108.088C243.829 108.19 243.881 108.318 243.881 108.472V114.758C243.881 114.956 243.862 115.099 243.826 115.186C243.782 115.274 243.701 115.333 243.584 115.362C243.46 115.398 243.266 115.417 243.003 115.417H242.553C241.324 115.417 240.377 115.212 239.711 114.802C239.046 114.393 238.713 113.819 238.713 113.08C238.713 112.144 239.254 111.434 240.337 110.951C239.562 110.337 238.954 109.595 238.516 108.724C238.479 108.651 238.461 108.567 238.461 108.472C238.461 108.325 238.512 108.197 238.614 108.088C238.709 107.985 238.837 107.934 238.998 107.934C239.203 107.934 239.364 108.029 239.481 108.219C240.447 109.755 241.31 110.523 242.07 110.523C242.297 110.523 242.542 110.501 242.805 110.458V108.472C242.805 108.318 242.86 108.19 242.97 108.088C243.072 107.985 243.197 107.934 243.343 107.934ZM242.805 111.467C242.015 111.518 241.317 111.679 240.71 111.95C240.103 112.22 239.799 112.597 239.799 113.08C239.799 113.497 240.044 113.815 240.534 114.034C241.017 114.254 241.701 114.363 242.586 114.363H242.805V111.467Z" fill="black"/>
</g>
<defs>
<filter id="filter0_d_2786_2162" x="0" y="8" width="115.2" height="144" filterUnits="userSpaceOnUse" color-interpolation-filters="sRGB">
<feFlood flood-opacity="0" result="BackgroundImageFix"/>
<feColorMatrix in="SourceAlpha" type="matrix" values="0 0 0 0 0 0 0 0 0 0 0 0 0 0 0 0 0 0 127 0" result="hardAlpha"/>
<feOffset/>
<feGaussianBlur stdDeviation="12"/>
<feComposite in2="hardAlpha" operator="out"/>
<feColorMatrix type="matrix" values="0 0 0 0 1 0 0 0 0 1 0 0 0 0 1 0 0 0 0.5 0"/>
<feBlend mode="normal" in2="BackgroundImageFix" result="effect1_dropShadow_2786_2162"/>
<feBlend mode="normal" in="SourceGraphic" in2="effect1_dropShadow_2786_2162" result="shape"/>
</filter>
<filter id="filter1_d_2786_2162" x="15" y="139" width="115.2" height="144" filterUnits="userSpaceOnUse" color-interpolation-filters="sRGB">
<feFlood flood-opacity="0" result="BackgroundImageFix"/>
<feColorMatrix in="SourceAlpha" type="matrix" values="0 0 0 0 0 0 0 0 0 0 0 0 0 0 0 0 0 0 127 0" result="hardAlpha"/>
<feOffset/>
<feGaussianBlur stdDeviation="12"/>
<feComposite in2="hardAlpha" operator="out"/>
<feColorMatrix type="matrix" values="0 0 0 0 1 0 0 0 0 1 0 0 0 0 1 0 0 0 0.5 0"/>
<feBlend mode="normal" in2="BackgroundImageFix" result="effect1_dropShadow_2786_2162"/>
<feBlend mode="normal" in="SourceGraphic" in2="effect1_dropShadow_2786_2162" result="shape"/>
</filter>
<filter id="filter2_d_2786_2162" x="82" y="63" width="115.2" height="144" filterUnits="userSpaceOnUse" color-interpolation-filters="sRGB">
<feFlood flood-opacity="0" result="BackgroundImageFix"/>
<feColorMatrix in="SourceAlpha" type="matrix" values="0 0 0 0 0 0 0 0 0 0 0 0 0 0 0 0 0 0 127 0" result="hardAlpha"/>
<feOffset/>
<feGaussianBlur stdDeviation="12"/>
<feComposite in2="hardAlpha" operator="out"/>
<feColorMatrix type="matrix" values="0 0 0 0 1 0 0 0 0 1 0 0 0 0 1 0 0 0 0.5 0"/>
<feBlend mode="normal" in2="BackgroundImageFix" result="effect1_dropShadow_2786_2162"/>
<feBlend mode="normal" in="SourceGraphic" in2="effect1_dropShadow_2786_2162" result="shape"/>
</filter>
<filter id="filter3_d_2786_2162" x="158" y="125" width="115.2" height="144" filterUnits="userSpaceOnUse" color-interpolation-filters="sRGB">
<feFlood flood-opacity="0" result="BackgroundImageFix"/>
<feColorMatrix in="SourceAlpha" type="matrix" values="0 0 0 0 0 0 0 0 0 0 0 0 0 0 0 0 0 0 127 0" result="hardAlpha"/>
<feOffset/>
<feGaussianBlur stdDeviation="12"/>
<feComposite in2="hardAlpha" operator="out"/>
<feColorMatrix type="matrix" values="0 0 0 0 1 0 0 0 0 1 0 0 0 0 1 0 0 0 0.5 0"/>
<feBlend mode="normal" in2="BackgroundImageFix" result="effect1_dropShadow_2786_2162"/>
<feBlend mode="normal" in="SourceGraphic" in2="effect1_dropShadow_2786_2162" result="shape"/>
</filter>
<filter id="filter4_d_2786_2162" x="171" y="0" width="115.2" height="144" filterUnits="userSpaceOnUse" color-interpolation-filters="sRGB">
<feFlood flood-opacity="0" result="BackgroundImageFix"/>
<feColorMatrix in="SourceAlpha" type="matrix" values="0 0 0 0 0 0 0 0 0 0 0 0 0 0 0 0 0 0 127 0" result="hardAlpha"/>
<feOffset/>
<feGaussianBlur stdDeviation="12"/>
<feComposite in2="hardAlpha" operator="out"/>
<feColorMatrix type="matrix" values="0 0 0 0 1 0 0 0 0 1 0 0 0 0 1 0 0 0 0.5 0"/>
<feBlend mode="normal" in2="BackgroundImageFix" result="effect1_dropShadow_2786_2162"/>
<feBlend mode="normal" in="SourceGraphic" in2="effect1_dropShadow_2786_2162" result="shape"/>
</filter>
</defs>
</svg>
