<svg width="512" height="512" viewBox="0 0 512 512" fill="none" xmlns="http://www.w3.org/2000/svg">
<path d="M136.122 364.72C133.509 364.72 130.989 363.973 128.562 362.48L47.362 308.72C43.442 306.107 41.482 302.28 41.482 297.24C41.482 292.387 43.5354 288.653 47.642 286.04L133.602 231.16C136.029 229.667 138.455 228.92 140.882 228.92C144.615 228.92 147.789 230.227 150.402 232.84C153.015 235.453 154.322 238.72 154.322 242.64C154.322 244.693 153.762 246.84 152.642 249.08C151.522 251.133 150.029 252.72 148.162 253.84L79.562 297.52L143.402 340.08C145.269 341.387 146.762 343.067 147.882 345.12C149.002 346.987 149.562 349.04 149.562 351.28C149.562 354.827 148.162 358 145.362 360.8C142.749 363.413 139.669 364.72 136.122 364.72ZM190.153 399.16C186.607 399.16 183.62 398.04 181.193 395.8C178.953 393.747 177.833 391.133 177.833 387.96C177.833 385.533 178.487 382.827 179.793 379.84L263.513 180.48C265.38 176 269.02 173.76 274.433 173.76C277.793 173.76 280.593 174.973 282.833 177.4C285.26 179.64 286.473 182.253 286.473 185.24C286.473 187.107 285.633 190 283.953 193.92L200.513 393C199.767 394.68 198.367 396.08 196.313 397.2C194.447 398.507 192.393 399.16 190.153 399.16ZM328.887 364.72C325.34 364.72 322.167 363.413 319.367 360.8C316.753 358 315.447 354.827 315.447 351.28C315.447 346.613 317.5 342.88 321.607 340.08L385.447 297.52L316.847 253.84C314.98 252.72 313.487 251.133 312.367 249.08C311.247 246.84 310.687 244.693 310.687 242.64C310.687 238.72 311.993 235.453 314.607 232.84C317.22 230.227 320.393 228.92 324.127 228.92C326.553 228.92 328.98 229.667 331.407 231.16L417.367 286.04C421.473 288.653 423.527 292.387 423.527 297.24C423.527 302.28 421.567 306.107 417.647 308.72L336.447 362.48C334.02 363.973 331.5 364.72 328.887 364.72Z" fill="#66B2FF"/>
<path d="M421.308 136.58C419.535 136.58 417.995 135.927 416.688 134.62C415.382 133.313 414.728 131.773 414.728 130C414.728 127.947 415.522 126.267 417.108 124.96L420.748 121.88C426.162 117.587 430.455 113.853 433.628 110.68C441.748 102.747 445.808 96.3533 445.808 91.5C445.808 87.02 444.315 83.1933 441.328 80.02C438.435 76.8467 433.862 75.26 427.608 75.26C424.342 75.26 421.495 76.0533 419.068 77.64C416.735 79.2267 414.402 81.3267 412.068 83.94C410.948 85.1533 409.455 85.76 407.588 85.76C405.815 85.76 404.228 85.1533 402.828 83.94C401.522 82.6333 400.868 81 400.868 79.04C400.868 77.2667 402.035 75.12 404.368 72.6C406.795 69.8933 410.062 67.4667 414.168 65.32C418.275 63.1733 422.755 62.1 427.608 62.1C433.768 62.1 439.182 63.3133 443.848 65.74C448.608 68.1667 452.295 71.62 454.908 76.1C457.522 80.58 458.828 85.7133 458.828 91.5C458.828 96.1667 457.988 100.273 456.308 103.82C454.628 107.367 452.948 109.98 451.268 111.66C449.682 113.34 447.115 115.813 443.568 119.08L430.828 130.7C426.442 134.62 423.268 136.58 421.308 136.58ZM416.968 158.84C414.822 158.84 413.048 158.093 411.648 156.6C410.342 155.013 409.688 153.1 409.688 150.86C409.688 148.527 410.528 146.473 412.208 144.7C413.888 142.833 415.802 141.9 417.948 141.9C420.002 141.9 421.728 142.693 423.128 144.28C424.528 145.773 425.228 147.593 425.228 149.74C425.228 152.26 424.388 154.407 422.708 156.18C421.122 157.953 419.208 158.84 416.968 158.84Z" fill="#E53935"/>
<path d="M362.308 156.58C360.535 156.58 358.995 155.927 357.688 154.62C356.382 153.313 355.728 151.773 355.728 150C355.728 147.947 356.522 146.267 358.108 144.96L361.748 141.88C367.162 137.587 371.455 133.853 374.628 130.68C382.748 122.747 386.808 116.353 386.808 111.5C386.808 107.02 385.315 103.193 382.328 100.02C379.435 96.8467 374.862 95.26 368.608 95.26C365.342 95.26 362.495 96.0533 360.068 97.64C357.735 99.2267 355.402 101.327 353.068 103.94C351.948 105.153 350.455 105.76 348.588 105.76C346.815 105.76 345.228 105.153 343.828 103.94C342.522 102.633 341.868 101 341.868 99.04C341.868 97.2667 343.035 95.12 345.368 92.6C347.795 89.8933 351.062 87.4667 355.168 85.32C359.275 83.1733 363.755 82.1 368.608 82.1C374.768 82.1 380.182 83.3133 384.848 85.74C389.608 88.1667 393.295 91.62 395.908 96.1C398.522 100.58 399.828 105.713 399.828 111.5C399.828 116.167 398.988 120.273 397.308 123.82C395.628 127.367 393.948 129.98 392.268 131.66C390.682 133.34 388.115 135.813 384.568 139.08L371.828 150.7C367.442 154.62 364.268 156.58 362.308 156.58ZM357.968 178.84C355.822 178.84 354.048 178.093 352.648 176.6C351.342 175.013 350.688 173.1 350.688 170.86C350.688 168.527 351.528 166.473 353.208 164.7C354.888 162.833 356.802 161.9 358.948 161.9C361.002 161.9 362.728 162.693 364.128 164.28C365.528 165.773 366.228 167.593 366.228 169.74C366.228 172.26 365.388 174.407 363.708 176.18C362.122 177.953 360.208 178.84 357.968 178.84Z" fill="#E53935"/>
</svg>
